<?xml version="1.0" encoding="utf-8"?>
<!-- Generator: Adobe Illustrator 30.6.0, SVG Export Plug-In . SVG Version: 9.03 Build 0)  -->
<svg version="1.0" id="Layer_1" xmlns="http://www.w3.org/2000/svg" xmlns:xlink="http://www.w3.org/1999/xlink" x="0px" y="0px"
	 viewBox="0 0 1280 841" style="enable-background:new 0 0 1280 841;" xml:space="preserve">
<style type="text/css">
	.st0{display:none;}
	.st1{display:inline;}
	.st2{fill:#252425;}
</style>
<g transform="translate(0.000000,841.000000) scale(0.100000,-0.100000)" class="st0">
	<path class="st1" d="M6345,8404c-27-2-117-8-200-14c-1121-80-2204-449-3155-1076c-629-414-1209-959-1661-1561
		C168,4208-258,2244,156,345c48-223,80-341,90-335c11,6,11,5-26,150C46,849-12,1642,61,2350c6,58,12,106,14,108s79-8,172-22
		c348-52,810-99,1178-119l210-12l8-90c20-248,81-658,138-935c63-303,164-690,182-690c5,0,6,7,3,16c-17,44-89,323-125,481
		c-83,369-155,827-177,1118l-6,90l523,1c288,0,621,5,739,12c255,15,661,48,815,67c61,7,111,13,111,12c1-1,32-119,69-262
		c66-261,117-442,181-655c45-148,44-144,49-138c2,2-5,33-16,69c-83,272-274,978-265,986c1,2,86,14,187,27c759,101,1584,287,2326,524
		l121,39l95-271c52-149,125-358,162-464c38-106,70-191,71-189c2,2-66,212-151,467c-86,254-155,463-153,465c2,1,53,19,113,39
		c720,249,1476,583,2093,925c138,76,143,78,152,58c4-12,27-65,50-117c85-191,189-451,320-794c6-16,13-27,15-24c9,9-226,601-339,858
		c-26,58-43,106-39,107c19,7,351,204,498,296c384,240,836,555,1133,790c35,27,65,48,67,46s38-62,81-134c223-375,402-732,565-1130
		c32-77,62-141,68-143s-16,61-48,140c-160,390-341,758-559,1128c-46,80-86,148-88,151s49,48,114,100c262,212,459,383,746,648
		c92,86,172,156,176,156c10,0,155-170,255-299c167-215,361-503,510-761c78-133,251-481,315-630c51-118,65-144,75-133
		c16,15-239,548-383,798c-892,1557-2373,2690-4097,3135c-373,97-700,153-1105,190C7057,8400,6461,8413,6345,8404z M7018,8303
		c78-3,142-9,142-12c-1-3-51-37-111-75c-124-77-100-74-284-32c-154,36-306,62-475,81c-164,18-184,23-120,25c25,2,95,6,155,10
		C6476,8309,6845,8311,7018,8303z M7555,8255c290-37,567-91,835-161c161-42,490-145,490-153c-1-8-167-137-373-292l-168-126l-132,79
		c-322,192-749,384-1071,482c-48,15-85,30-82,33c3,4,59,41,123,84c83,54,128,78,150,78C7345,8280,7447,8269,7555,8255z M6205,8180
		c206-18,615-84,615-100c0-3-17-14-38-26c-20-11-98-54-172-96c-74-41-193-105-264-142l-129-66l-91,58c-260,168-524,288-731,333
		l-60,13l55,8C5561,8189,5987,8198,6205,8180z M5380,8050c135-27,279-76,427-143c124-57,325-169,331-185c10-30-1030-453-1055-429
		c-5,6-252,737-253,749c0,7,38,16,130,29S5266,8074,5380,8050z M7137,8000c150-45,359-122,513-187c192-83,610-298,625-324
		c7-10-348-246-580-384c-197-118-479-275-493-275c-5,0-54,51-108,113c-237,270-585,597-775,730c-12,9-21,19-18,21c3,3,81,45,174,94
		c94,50,235,128,315,175C6958,8063,6938,8060,7137,8000z M4855,7639c72-203,131-373,133-377c3-9-259-89-473-145
		c-248-66-702-164-712-154c-7,8,70,184,130,301c142,273,339,502,540,630c71,45,215,116,236,116C4721,8010,4760,7911,4855,7639z
		 M9052,7884c381-144,920-413,1196-599l32-22l-112-105c-195-180-603-531-656-562c-8-5-52,30-130,105c-283,272-597,526-887,719
		c-60,40-114,76-118,80c-5,4,63,60,150,123c87,64,212,159,278,211s121,95,122,96C8927,7930,8984,7909,9052,7884z M4149,7738
		c-140-165-280-413-374-662c-25-66-48-123-52-127c-17-16-738-107-750-95c-3,2,73,83,169,179c313,314,601,531,963,723
		c55,30,101,54,103,54C4209,7810,4182,7777,4149,7738z M6340,7588c155-116,315-253,463-397c137-133,357-367,357-380
		c0-18-532-269-820-386c-267-109-817-305-856-305c-7,0-88,226-190,533c-97,292-179,537-181,542c-1,6,48,28,109,49
		c262,90,645,247,878,359c63,30,122,56,130,56S6288,7628,6340,7588z M3515,7497c-154-114-403-349-563-532c-58-66-106-121-106-122
		c-3-4-351-22-354-18c-5,5,224,178,366,278c160,112,329,220,517,329C3521,7517,3575,7542,3515,7497z M8522,7337
		c283-188,521-377,796-629c127-116,151-142,141-155c-19-22-374-286-559-416c-197-138-411-275-654-421c-146-88-181-105-191-94
		c-6,7-58,87-115,178c-177,284-398,596-608,858c-63,79-112,145-111,147c2,2,74,41,159,88c267,145,538,310,801,487
		C8336,7484,8294,7490,8522,7337z M10453,7148c367-255,764-595,1036-888l104-111l-44-46c-177-182-932-847-977-860
		c-4-1-66,86-138,195c-251,376-566,771-838,1049c-38,40-68,74-65,76c237,188,477,393,664,565c66,61,121,111,123,112
		C10320,7240,10381,7199,10453,7148z M5051,7085c35-104,335-955,344-976c14-36-711-214-1221-299c-194-32-555-80-605-80
		c-30,0-30,1-25,43c3,23,13,103,21,177c33,279,103,619,172,830l28,85l140,27c299,57,682,151,945,232c80,25,151,44,159,43
		S5035,7131,5051,7085z M3679,6783c-72-250-134-602-161-915c-10-121-15-148-28-148c-8,0-91-7-185-15c-246-21-838-38-977-28l-116,8
		l65,130c155,311,346,613,542,857l66,83l65,7c384,41,473,51,576,67c66,10,131,19,146,20l27,1L3679,6783z M7361,6573
		c173-213,345-450,514-707c145-221,171-263,164-269c-10-11-270-152-429-235c-320-166-780-372-1125-505c-211-80-525-191-529-186
		c-4,4-468,1399-470,1412c0,4,105,43,234,86c462,155,932,350,1345,558l120,61l20-23C7216,6752,7286,6666,7361,6573z M2748,6718
		c-195-256-358-523-516-845c-79-162-98-193-116-193c-93,0-686,48-695,56c-2,2,23,36,55,76c237,296,515,585,809,842l97,85l136,4
		c76,1,163,4,196,5l58,2L2748,6718z M9638,6393c304-323,541-619,793-990l120-178l-33-28c-173-146-628-475-958-693
		c-266-175-679-426-693-421c-5,1-62,115-126,252c-183,390-376,757-576,1098c-47,82-85,150-83,151s102,61,223,133
		c354,212,696,442,1036,698c84,63,156,115,160,115S9567,6468,9638,6393z M5423,6028c8-24,47-133,85-243c65-186,352-999,385-1091
		l15-42l-111-35c-638-202-1335-355-2022-443c-104-13-195-24-201-24c-13,0-28,158-45,460c-13,227-7,1005,8,1055c7,23,16,31,39,33
		c207,20,664,92,936,147c197,40,647,151,788,194c52,16,98,30,102,30C5405,6070,5415,6051,5423,6028z M1545,5676c83-8,245-20,360-26
		c116-7,211-13,213-14c1-2-14-41-33-87c-148-345-303-895-375-1329c-6-36-13-78-16-94l-6-29l-122,7c-296,17-1012,98-1031,118
		c-3,2,13,45,34,95c143,329,336,685,534,983c126,189,270,389,282,389C1391,5690,1463,5683,1545,5676z M3493,5333
		c-6-364,3-601,33-981c10-111,15-204,13-206c-9-8-527-46-769-57c-245-11-1025-7-1037,5c-7,7,49,302,89,466c79,327,191,669,316,961
		l49,114l409,6c369,6,564,15,784,38c41,5,85,9,96,10l22,1L3493,5333z M8147,5433c133-226,258-454,388-708c122-237,320-654,313-660
		c-23-20-427-233-683-360c-439-218-770-363-1200-525c-219-83-454-164-458-159c-16,20-537,1612-531,1619c5,4,68,28,139,53
		c599,208,1242,493,1785,791c85,47,157,86,160,86S8102,5508,8147,5433z M5944,4548c144-404,536-1524,536-1532c0-20-513-174-935-280
		c-474-120-894-203-1374-271c-135-19-262-37-282-40l-36-5l-47,213c-57,263-118,582-156,832c-45,294-88,645-79,645
		c19,0,408,55,534,75c548,88,1176,237,1665,394c69,22,130,40,136,41C5913,4620,5930,4587,5944,4548z M760,4126c252-32,586-63,773-72
		c81-4,147-10,147-13c0-4-7-58-15-121c-37-291-47-456-52-836c-4-253-1-450,6-559c7-92,10-170,7-173c-8-7-337,14-601,39
		c-259,24-468,50-738,91l-209,32l7,60c12,108,64,400,100,562c68,303,169,640,273,907l45,119l31-6C551,4153,653,4139,760,4126z
		 M3550,4097c0-7,11-102,25-212c51-403,121-806,214-1235c27-124,48-226,47-228c-6-5-393-42-596-56c-427-30-737-39-1159-32
		c-228,3-418,9-423,14c-4,4-13,133-19,286c-18,394,1,805,56,1246c9,69,18,132,21,140c3,14,60,16,471,16c455,0,673,8,1033,40
		c146,12,290,27,323,33C3547,4109,3550,4104,3550,4097z"/>
</g>
<g id="Generative_Object__x28_180_x2C__0_x29__00000006671343915307564190000015804209893138663079_">
	<path d="M596.55,634.05l30.43-91.7c-80.82-27.11-158.93-61.26-233.79-103.36l-13.91,32.02l-24.7,62.38
		c-0.53-0.65-1.15-1.05-1.78-1.22l21.14-55.24l16.89-39.25C330.79,403.26,274.79,365.86,221.88,324
		c-10.2,15.27-19.01,30.03-26.94,45.87l-26.59,53.08c-6.77,13.51-9.11,28.14-19.24,40.65c18.2-48.88,41.91-95.41,69.9-141.86
		c-36.06-28.55-69.24-57.91-102.86-89.28C65.7,286.06,32.22,349.06,0.01,415.18c35.77-94.81,98.87-182.46,177.35-251.24
		C367.79-2.93,636.85-46.66,870.32,50.05l42.98,20.18c47.77,22.43,91.65,53.24,132.37,87.74c119.42,101.18,199.3,241,224.59,394.44
		c15.81,95.91,12.45,195.28-15.24,288.54c6.49-44.31,18.29-85.42,19.49-130.17c3.39-39.01,2.07-76.49-2.78-115.51
		c-52.12,7.98-102.89,12.05-154.84,15.29c-6.55,58.96-13.85,117.15-33.88,172.84c12.32-56.09,27.22-111.52,29.68-171.9l-31.72,0.03
		c-62.34,0.06-123.06-2.01-185.59-9.21l-21.41,80.05l-7.16,23.86l-2.07-1.27l28.59-102.86c-89.05-11.05-176.56-29.97-263.12-58.45
		l-31.11,88.76C598.85,633.14,597.64,634.14,596.55,634.05z M624.8,17.22l38.22-5.24c-32.62-3.09-63.82-2.58-97.51-0.26
		c6.48,5.19,13.8,11.41,21.48,13.27L624.8,17.22z M446.62,87.09c40.73-25.13,81.88-43.6,127-57.52
		c-9.11-5.74-17.85-14.33-27.98-15.85c-53.14,3.13-103.15,16.03-153.18,32.61L428.14,75C433.82,79.58,439,84.74,446.62,87.09z
		 M742.57,25.35c-48.44-6.06-97.56-3.97-143.69,7.8l59.1,32.29C685,47.5,711.12,32.27,742.57,25.35z M771.55,111.71l25.29-75.62
		c-17.46-4.79-33.94-2.91-51.66-0.44c-28.38,5.55-54.94,16.83-78.93,33.4C701.24,85.58,734.71,99.72,771.55,111.71z M558.86,157.01
		c28.91-32.31,57.15-60.3,90.3-85.72l-63.75-34.66c-37.9,8.81-73.05,22.66-106.89,40.98l-26.9,14.41
		C486.81,116.83,522.43,138,558.86,157.01z M884.5,111.89c-11.44-21.55-25.6-39.21-43.69-54.79c-9.58-7.68-20.94-12.96-32.66-16.96
		L781.32,115c38.77,12.44,76.88,22.15,118.02,29.55L884.5,111.89z M441.19,90.2l-54.89-42.8l-45.17,19.38
		c-30.67,13.86-60.02,28.39-89.25,47.84c25.6,23.02,50.28,45.25,77.46,66.39C364.47,146.37,400.93,117.86,441.19,90.2z
		 M981.57,155.02c-35.79-38.83-72.93-71.28-120.09-92.95c19.4,24.13,32.73,48.18,42.67,75.89c0.96,2.67,2.3,7.89,5.93,8.33
		L981.57,155.02z M731.86,227.76l36.91-107.3c-39.62-12.99-75.59-28.99-112.6-45.53c-22.07,15.63-41.15,31.74-59.51,50.37
		l-32.86,34.52c23.97,13.36,46.31,22.53,69.95,32.74C665.8,206.34,697.77,218.74,731.86,227.76z M994.79,156.69l33.87,0.23
		c-30.91-23.88-61.67-45.59-96.18-63.61c3.98,6.01,10.64,8.47,15.55,13.42l34.25,34.51C987.01,146.01,991.05,150.57,994.79,156.69z
		 M557.12,160.55l-62.26-35.73l-47.6-30.67c-40.63,26.42-78.93,55.41-113.86,90.44c44.7,35.67,90.39,67.1,140.15,94.59
		C498.9,236.39,526.55,198.58,557.12,160.55z M222.11,316.16c31.36-46.31,64.21-90.98,104.61-131.78l-79.2-66.92
		c-47.78,31.16-89.01,67.75-127.22,108.34C153.05,257.13,185.66,286.98,222.11,316.16z M924.97,267.08
		c-3.25-39.48-10.69-76.04-21.48-112.43c-42.46-7.74-82.9-17.97-125.08-30.63L740.4,231.34
		C801.81,248.91,861.67,261.16,924.97,267.08z M1049.12,254.3c-16.67-32.57-35.67-61.67-58.62-89.19L910.31,156
		c10.22,36.74,16.84,73.44,18.8,111.73c43.35,4.66,85.47,5.88,129.63,4.32L1049.12,254.3z M683.81,372.96l47.13-140.94
		c-58.84-19.25-114.81-41-169.54-69.55c-31.38,37.27-60.18,75.74-85.71,118.54C541.95,318.6,610.2,349.19,683.81,372.96z
		 M1136.85,266.63c-29.18-38.53-61.55-70.02-96.93-100.2c-13.07,0.03-24.4,0.37-37.18-1.03c25.5,33.74,45.65,68.54,63.51,106.44
		L1136.85,266.63z M393.35,431.96c23.47-51.98,48.22-100.09,77.73-149.35c-49.9-29.38-96.13-59.9-140.5-94.81l-29.02,29.72
		c-28.01,31.79-53.55,65.01-76.43,100.81c46.77,37.55,93.97,70.13,144,99.99C377.1,423.14,382.97,428.5,393.35,431.96z
		 M924.32,408.1c2.33,0.87,2.29,3.51,2.46,5.3l-1.36,12.31c59.61,5.75,118.85,8.51,180.6,5.54c-7.88-54.26-24-104.58-45.11-153.96
		l-69.21-1.13c-20.64-0.17-40.13-1.83-61.72-4.46c0.52,35.42,2.18,68.49-1.11,101.91c0.13-2.51-1.39-7.26-2.83-9.88
		c1.5-2.57,1.63-5.89,1.53-9.63l-2.06-82.6c-63.82-7.33-125.13-19.26-186.15-37.28l-15.78,45.34l-34.16,95.82
		c76.98,25,153.85,40.67,232.68,50.23L924.32,408.1z M1111.29,431.23l114.81-12.93c-21.97-52.73-49.71-100.49-84.33-146.06l-74,4.94
		l14.46,36.45C1095.3,351.78,1103.98,390.74,1111.29,431.23z M628.95,538.18l36.43-110.37l16.28-51.18
		c-72.57-25.29-141.69-54.61-207.9-92.93c-30.1,50.15-55.72,98.91-78.36,150.34l32.13,17.48C492,485.94,557.38,515.05,628.95,538.18
		z M914.81,488.49l5.08-36.92c1.03-7.51,3.36-14.86-0.26-21.85c-78.56-9.44-154.18-26.4-231.07-50.91l-57.19,160.95
		c86.18,28.04,172.63,47.87,262.77,58.13l14.2-70.99L914.81,488.49z M1118.22,573.66c-2.36-0.71-2.23-3.5-2.57-5.48l-0.25-42.98
		c-0.17-29.72-2.14-58.86-8.01-88.14c-62.42,1.15-122.08,0.19-183.56-6.92l0.11,14.19c0.03,3.42-0.48,5.72-1.01,9.02l-12.88,79.88
		l-13.38,64.98c71.8,8.25,143.38,10.75,216.62,7.47l1.21-16.08l3.22,0.21c-0.29,5.2-1.2,10.16-0.02,15.59
		c52.24-2.53,102.65-7.83,153.53-16.29c-7.06-56.77-20.99-111.51-42.04-164.05c-39.95,5.4-77.65,9.31-117.26,11.28
		c4.4,29.91,6.68,58.75,6.53,88.8L1118.22,573.66z"/>
	<path class="st2" d="M928.85,373.6l-2.08,39.8c-0.17-1.78-0.13-4.42-2.46-5.3l1.7-44.38C927.46,366.34,928.98,371.09,928.85,373.6z
		"/>
	<path d="M1118.22,573.66l-0.5,16.16l-3.22-0.21l1.15-21.43C1115.99,570.16,1115.85,572.95,1118.22,573.66z"/>
</g>
</svg>
