<?xml version="1.0" encoding="UTF-8"?>
<svg id="Camada_1" xmlns="http://www.w3.org/2000/svg" version="1.1" viewBox="0 0 2000.43 1500">
  <!-- Generator: Adobe Illustrator 30.6.0, SVG Export Plug-In . SVG Version: 2.1.4 Build 109)  -->
  <defs>
    <style>
      .st0 {
        fill: #fffffa;
      }

      .st1 {
        fill-rule: evenodd;
      }

      .st1, .st2 {
        fill: #fff;
      }

      .st3 {
        fill: none;
        stroke: #fff;
        stroke-miterlimit: 10;
        stroke-width: 7px;
      }
    </style>
  </defs>
  <g>
    <path class="st0" d="M517.25,510.43c33.35,48.06,88.75,41.87,88.75,41.87h21.41l-138.76-211.06-42.12,62.99c33.79,50.47,64.31,96.2,70.73,106.19Z"/>
    <path class="st0" d="M393.52,196.53h-109.38l-125.19,355.77h72.62l110.95-303.22s28.03,41.75,61.72,92l42.17-64.11-52.89-80.44Z"/>
    <path class="st0" d="M661.27,552.3h72.62l-125.3-355.77h-109.27l-52.91,80.44v.02s.01,0,.01,0l42.16,64.09c33.67-50.25,61.68-91.99,61.68-91.99l111.01,303.22Z"/>
    <path class="st0" d="M404.24,341.1s0,0,0,0l-138.93,211.21h21.45s55.44,6.19,88.79-41.87c6.45-10,36.98-55.73,70.76-106.2l-42.13-63.01.08-.12Z"/>
    <path class="st0" d="M446.29,404.22l.12.18.11-.17c-.04-.06-.08-.12-.12-.18-.04.06-.08.11-.11.17Z"/>
    <path class="st0" d="M488.65,341.24l.02-.02-.09-.13s-.01.02-.02.02l.09.13Z"/>
  </g>
  <path class="st1" d="M961,397.79c-4.02,0-7.3.08-9.72.26-2.5,0-4.48.36-5.88.8-1.37.39-2.37,1.03-2.99,1.93-.64.83-1.16,1.88-1.65,3.22l-47.6,136.83c-.95,2.81-1.55,5.03-1.75,6.65-.26,1.7,0,3.02.8,3.97.8.85,2.22,1.42,4.28,1.7,2.07.18,4.95.31,8.61.31,3.43,0,6.14-.05,8.22-.26,2.14-.13,3.76-.39,4.87-.8,1.16-.44,2.01-1.11,2.53-1.8.54-.77,1.01-1.73,1.34-2.86l9.72-30.11h57.96l10.39,30.97c.23,1.06.64,1.86,1.16,2.5.49.67,1.34,1.11,2.5,1.52,1.16.41,2.94.54,5.13.59,2.32.21,5.44.26,9.54.26s6.99-.13,9.2-.31c2.22-.13,3.74-.64,4.59-1.47.9-.85,1.26-2.17,1-3.76-.26-1.7-.85-3.97-1.85-6.81l-47.65-136.81c-.46-1.52-1.06-2.66-1.75-3.53-.67-.9-1.78-1.55-3.38-1.93-1.52-.44-3.64-.8-6.39-.8-2.78-.18-6.55-.26-11.24-.26M938.7,493.49l21.94-65.52,21.81,65.52h-43.76ZM1183.54,398.05c-2.91,0-5.18.13-7.04.36-1.83.13-3.33.44-4.38.98-1.21.44-1.99.98-2.37,1.65-.52.62-.75,1.31-.75,2.06v72.43c0,5.49.03,11.22.13,17.33.1,5.98.36,11.83.46,17.33-1.47-3.15-2.91-6.32-4.39-9.49l-4.69-9.67c-1.55-3.35-3.27-6.65-5.03-9.9l-5.08-10.18-30.06-56.36c-1.52-3.07-2.97-5.62-4.39-7.68-1.47-2.17-3.01-3.84-4.69-5.05-1.6-1.21-3.43-2.01-5.49-2.45-2.06-.59-4.56-.88-7.61-.88h-16.76c-3.22,0-5.93.98-8.14,2.81-2.11,1.88-3.22,4.64-3.22,8.43v138.59c0,.8.18,1.52.59,2.17.42.64,1.16,1.19,2.17,1.7,1.01.39,2.53.67,4.28.95,1.86.18,4.13.31,6.91.31s5.18-.13,7.04-.31c1.8-.28,3.27-.57,4.33-.95,1.05-.52,1.8-1.06,2.22-1.7.46-.64.7-1.37.7-2.17v-80.68c0-6.03-.05-11.91-.23-17.56-.15-5.7-.36-11.4-.46-17.15,1.8,4.69,3.87,9.51,6.19,14.57,2.27,4.92,4.59,9.57,6.86,13.82l38.26,72.12c2.06,3.97,3.84,7.22,5.39,9.8,1.62,2.45,3.27,4.43,4.95,5.93,1.75,1.47,3.61,2.42,5.57,3.02,2.06.49,4.54.83,7.32.83h13.33c1.52,0,2.92-.21,4.39-.62,1.57-.44,2.81-1.21,3.84-2.14,1.11-.93,1.96-2.17,2.6-3.61.67-1.34.95-3.02.95-4.82v-138.74c0-.75-.21-1.44-.54-2.06-.47-.67-1.16-1.21-2.17-1.65-1.01-.54-2.37-.85-4.13-.98-1.88-.23-4.21-.36-6.86-.36M1297.45,398.51h-38.78c-2.63,0-4.82.83-6.65,2.37-1.7,1.52-2.66,3.97-2.66,7.5v134.51c0,3.48.95,6.03,2.66,7.61,1.83,1.55,4.02,2.27,6.65,2.27h41.05c6.14,0,11.78-.36,16.81-1.08,5.03-.77,9.87-1.99,14.26-3.58,4.49-1.55,8.56-3.64,12.2-6.06,3.71-2.48,6.93-5.39,9.51-8.79,2.76-3.45,4.82-7.32,6.29-11.81,1.55-4.43,2.32-9.41,2.32-14.9s-.83-9.98-2.43-14.26c-1.52-4.18-3.74-7.81-6.55-10.93-2.66-3.12-5.88-5.75-9.67-7.73-3.63-1.99-7.6-3.38-12.04-4.2,3.43-1.21,6.45-2.91,9.08-5.03,2.71-2.01,4.97-4.43,6.78-7.12,1.88-2.71,3.22-5.7,4.2-8.9,1.01-3.38,1.44-6.86,1.44-10.65,0-6.68-1.21-12.45-3.56-17.4-2.42-4.9-5.91-8.97-10.39-12.2-4.43-3.27-9.98-5.62-16.55-7.25-6.5-1.55-14.52-2.37-23.98-2.37M1280.18,462.01v-40.02h15.86c4.85,0,8.71.41,11.55,1.29,2.97.88,5.34,2.17,7.3,3.87,1.91,1.57,3.33,3.58,4.28,6.01.9,2.45,1.39,5.26,1.39,8.38,0,2.76-.39,5.41-1.29,7.99-.88,2.45-2.22,4.69-4.05,6.55-1.76,1.86-3.97,3.27-6.68,4.38-2.74,1.06-6.32,1.55-10.83,1.55h-17.53ZM1280.18,528.79v-43.86h18.59c5.72,0,10.36.57,13.95,1.57,3.56,1.01,6.5,2.45,8.84,4.36,2.27,1.99,4,4.33,5.16,7.17,1.26,2.76,1.8,5.93,1.8,9.57,0,3.43-.54,6.45-1.86,9.15-1.16,2.6-2.94,4.9-5.11,6.7-2.14,1.73-4.77,3.07-7.78,4.02-2.94.9-6.55,1.31-10.93,1.31h-22.66ZM1418.12,397.79c-3.04,0-5.49.13-7.5.39-2.04.23-3.69.57-4.9.9-1.21.41-2.06.95-2.6,1.55-.46.67-.72,1.37-.72,2.17v145.7c0,.75.26,1.5.72,2.11.54.67,1.39,1.16,2.6,1.6,1.21.39,2.79.67,4.75.95,2.06.18,4.62.31,7.66.31s5.62-.13,7.61-.31c2.01-.28,3.61-.57,4.77-.95,1.21-.44,2.07-.93,2.48-1.6.59-.62.85-1.37.85-2.11v-145.7c0-.8-.26-1.5-.85-2.17-.41-.59-1.27-1.13-2.48-1.55-1.16-.34-2.76-.67-4.77-.9-1.99-.26-4.54-.39-7.61-.39M1652.72,398.51h-21.04c-2.97,0-5.54.34-7.81.98-2.16.54-4.17,1.55-5.8,2.97-1.65,1.44-3.07,3.27-4.28,5.59-1.19,2.29-2.4,5.13-3.3,8.48l-35.12,91.61-33.39-91.89c-.95-3.33-2.06-6.08-3.33-8.3-1.24-2.29-2.86-4.15-4.77-5.49-1.86-1.42-4.18-2.42-6.76-2.97-2.66-.64-5.78-.98-9.41-.98h-20.55c-3.53,0-6.39,1.08-8.51,3.22-2.17,2.17-3.28,5.26-3.28,9.28v137.48c0,.75.21,1.5.54,2.11.57.67,1.32,1.16,2.43,1.6,1.21.39,2.73.67,4.64.95,1.91.18,4.33.31,7.14.31,2.99,0,5.34-.13,7.17-.31,1.91-.28,3.45-.57,4.62-.95,1.21-.44,2.06-.93,2.42-1.6.46-.62.75-1.37.75-2.11l.26-125.59,43.11,125.44c.26.9.7,1.65,1.42,2.27.75.67,1.65,1.21,2.86,1.68,1.27.41,2.92.75,4.8.88,1.86.18,4.13.31,6.88.31s4.98-.05,6.91-.26c1.91-.05,3.45-.23,4.62-.64,1.36-.46,2.27-.95,3.04-1.6.7-.7,1.19-1.52,1.54-2.63l44.97-125.44v125.59c0,.75.21,1.5.67,2.11.49.67,1.24,1.16,2.4,1.6,1.11.39,2.58.67,4.49.95,1.91.18,4.33.31,7.17.31s5.39-.13,7.3-.31c1.91-.28,3.38-.57,4.49-.95,1.18-.44,2.01-.93,2.4-1.6.56-.62.77-1.37.77-2.11v-137.48c-.05-1.96-.31-3.69-.88-5.21-.49-1.6-1.24-2.94-2.29-3.97-.93-1.11-2.17-1.96-3.79-2.45-1.49-.59-3.32-.88-5.49-.88M1770.91,397.79c-4.07,0-7.3.08-9.82.26-2.4,0-4.33.36-5.78.8-1.37.39-2.37,1.03-2.97,1.93-.67.83-1.21,1.88-1.68,3.22l-47.59,136.83c-.95,2.81-1.55,5.03-1.76,6.65-.21,1.7,0,3.02.8,3.97.83.85,2.27,1.42,4.33,1.7,2.06.18,4.9.31,8.61.31,3.33,0,6.13-.05,8.17-.26,2.17-.13,3.82-.39,4.87-.8,1.21-.44,2.01-1.11,2.48-1.8.59-.77,1.01-1.73,1.37-2.86l9.69-30.11h58.01l10.34,30.97c.36,1.06.75,1.86,1.21,2.5.49.67,1.31,1.11,2.45,1.52,1.21.41,2.94.54,5.21.59,2.27.21,5.49.26,9.51.26s6.94-.13,9.15-.31c2.22-.13,3.84-.64,4.64-1.47.9-.85,1.21-2.17.95-3.76-.21-1.7-.8-3.97-1.7-6.81l-47.75-136.81c-.49-1.52-1.05-2.66-1.8-3.53-.62-.9-1.73-1.55-3.27-1.93-1.52-.44-3.74-.8-6.5-.8-2.78-.18-6.5-.26-11.19-.26M1748.61,493.49l21.97-65.52,21.79,65.52h-43.75Z"/>
  <g>
    <path class="st2" d="M974.46,303.75h-14.45l-8.52-27.38h-37.43l-8.37,27.38h-14.45l32.55-104.21h17.96l32.7,104.21ZM916.8,265.71h31.94l-15.96-50.49h-.15l-15.83,50.49Z"/>
    <path class="st2" d="M1045.24,227.69v76.06h-11.42l-.76-9.27h-.31c-6.23,7.76-14.45,10.79-24.03,10.79-15.35,0-23.57-9.42-23.57-23.11v-54.46h12.17v53.7c0,8.96,7.15,13.99,16.13,13.99s19.62-6.23,19.62-17.79v-49.9h12.17Z"/>
    <path class="st2" d="M1068.41,287.48v-50.05h-12.49v-7.46l12.49-2.27,5.01-21.3h7.15v21.3h21v9.74h-21v49.29c0,6.23,2.59,7.91,8.37,7.91h12.63v7.91c-6.09,1.83-9.59,2.73-14.91,2.73-14.61,0-18.25-8.2-18.25-17.79Z"/>
    <path class="st2" d="M1111.04,265.71c0-23.43,8.81-39.55,33.01-39.55s33.16,16.13,33.16,39.55-8.83,39.55-33.16,39.55-33.01-15.96-33.01-39.55ZM1123.81,265.71c0,16.59,4.56,29.21,20.24,29.21s20.38-12.62,20.38-29.21-4.56-29.21-20.38-29.21-20.24,12.63-20.24,29.21Z"/>
    <path class="st2" d="M1193.98,303.75v-76.06h11.42l.76,12.77h.3c5.02-10.03,15.22-14.3,24.79-14.3v12.32h-3.03c-13.69,0-22.06,8.98-22.06,19.63v45.63h-12.17Z"/>
    <path class="st2" d="M1244.21,303.75v-76.06h11.42l.76,12.77h.3c5.02-10.03,15.22-14.3,24.79-14.3v12.32h-3.03c-13.69,0-22.06,8.98-22.06,19.63v45.63h-12.17Z"/>
    <path class="st2" d="M1304.33,269.37c.3,14.3,5.32,25.25,20.08,25.25h25.09v7.91c-9.59,1.98-17.64,2.73-25.09,2.73-24.2,0-33.01-15.96-33.01-39.55s10.35-39.55,34.83-39.55c19.03,0,28.3,11.27,28.3,22.52,0,10.2-4.56,20.69-22.21,20.69h-27.99ZM1304.48,260.85h24.79c10.2,0,13.08-6.08,13.08-11.71,0-6.24-5.78-12.32-16.42-12.32-14.3,0-20.54,10.49-21.45,24.03Z"/>
    <path class="st2" d="M1418.45,294.48h-.3c-5.93,7.76-12.32,10.79-21.61,10.79-21.14,0-29.04-15.81-29.04-39.39s10.35-38.18,33.62-38.18h29.5v68.45c0,23.59-8.83,39.55-33.16,39.55-7.46,0-14.15-.76-23.89-2.73v-7.91h24.5c15.81,0,20.38-12.32,20.38-27.69v-2.88ZM1418.45,237.89h-16.74c-15.81,0-21.45,12.01-21.45,27.99s3.81,29.36,20.08,29.36c8.83,0,18.1-6.24,18.1-17.96v-39.39Z"/>
    <path class="st2" d="M1509.02,227.69v76.06h-11.42l-.76-9.27h-.31c-6.23,7.76-14.45,10.79-24.03,10.79-15.35,0-23.57-9.42-23.57-23.11v-54.46h12.17v53.7c0,8.96,7.15,13.99,16.13,13.99s19.62-6.23,19.62-17.79v-49.9h12.17Z"/>
    <path class="st2" d="M1527.31,197.27h12.17v89.45c0,6.54,1.52,7.91,11.4,7.91v9.88c-20.53,1.53-23.57-3.81-23.57-17.79v-89.45Z"/>
    <path class="st2" d="M1563.85,236.82v-7.91c9.74-1.68,19.32-2.75,27.23-2.75,17.03,0,26.92,5.63,26.92,24.81v52.78h-11.4l-.77-9.27h-.3c-6.69,8.52-13.69,10.79-23.43,10.79-14.3,0-23.43-8.81-23.43-22.21,0-16.74,11.4-22.67,25.86-22.67h21.28v-8.81c0-9.44-3.03-14.76-15.81-14.76h-26.16ZM1605.82,269.07h-18.55c-10.66,0-16.42,4.4-16.42,13.38s6.99,12.93,15.96,12.93c8.37,0,19.01-5.63,19.01-17.79v-8.52Z"/>
    <path class="st2" d="M1663.06,304.97c-20.69-1.83-28.29-17.2-28.29-39.26,0-23.43,8.81-39.55,33.01-39.55,7.45,0,13.23.77,22.82,2.75v7.91h-22.82c-15.68,0-20.24,12.32-20.24,28.9s4.56,28.91,20.24,28.91h22.82v7.91c-8.83,1.83-14.46,2.59-21,2.73v6.24c5.02.61,12.49,3.66,12.49,10.95s-5.17,11.71-14.76,11.71c-3.51,0-6.69-.31-10.49-1.37v-4.88h8.98c4.25,0,6.84-1.66,6.84-5.17s-2.44-6.23-9.59-6.84v-10.95Z"/>
    <path class="st2" d="M1704.95,236.82v-7.91c9.74-1.68,19.32-2.75,27.23-2.75,17.03,0,26.92,5.63,26.92,24.81v52.78h-11.4l-.76-9.27h-.31c-6.69,8.52-13.69,10.79-23.43,10.79-14.3,0-23.43-8.81-23.43-22.21,0-16.74,11.4-22.67,25.86-22.67h21.3v-8.81c0-9.44-3.05-14.76-15.83-14.76h-26.16ZM1723.5,210.2c-4.25,0-8.52,2.13-12.01,5.47l-3.2-6.84c4.71-5.78,9.42-8.07,15.21-8.07,7,0,12.49,5.02,17.49,5.02,4.27,0,8.52-2.13,12.02-5.47l3.2,6.84c-4.88,5.78-9.44,8.22-15.22,8.22-5.47,0-12.62-5.17-17.49-5.17ZM1746.94,269.07h-18.56c-10.66,0-16.42,4.4-16.42,13.38s6.99,12.93,15.96,12.93c8.37,0,19.03-5.63,19.03-17.79v-8.52Z"/>
    <path class="st2" d="M1776.49,265.71c0-23.43,8.81-39.55,33.01-39.55s33.16,16.13,33.16,39.55-8.83,39.55-33.16,39.55-33.01-15.96-33.01-39.55ZM1789.26,265.71c0,16.59,4.56,29.21,20.24,29.21s20.38-12.62,20.38-29.21-4.56-29.21-20.38-29.21-20.24,12.63-20.24,29.21Z"/>
  </g>
  <path class="st3" d="M103.5,3.5h1893.43v1393c0,55.19-44.81,100-100,100H3.5V103.5C3.5,48.31,48.31,3.5,103.5,3.5Z"/>
  <g>
    <path class="st2" d="M707.2,1107.35c-13.53,0-17.16,10.56-17.16,26.56s3.63,26.73,17.16,26.73,17.16-10.56,17.16-26.73-3.79-26.56-17.16-26.56Z"/>
    <path class="st2" d="M1095.17,1150.41c0,8.08,6.27,11.05,13.2,11.05s15.67-4.46,15.67-15.18v-7.26h-15.34c-8.58,0-13.53,3.63-13.53,11.38Z"/>
    <path class="st2" d="M606.98,1150.41c0,8.08,6.27,11.05,13.2,11.05s15.67-4.46,15.67-15.18v-7.26h-15.34c-8.58,0-13.53,3.63-13.53,11.38Z"/>
    <path class="st2" d="M1031.22,1081.12h-17.82v34.32h17.82c10.06,0,16.83-4.95,16.83-16.99s-6.76-17.32-16.83-17.32Z"/>
    <path class="st2" d="M913.25,1107.51c-11.71,0-17.16,8.25-18.31,19.8h20.62c7.92,0,10.89-4.62,10.89-9.57,0-5.28-4.78-10.23-13.2-10.23Z"/>
    <path class="st2" d="M808.84,1133.91c0,15.67,2.81,27.06,16.66,27.06,6.93,0,15.34-4.79,15.34-15.01v-38.44h-14.02c-13.53,0-17.98,10.72-17.98,26.4Z"/>
    <path class="st2" d="M1478.87,1107.35c-13.53,0-17.16,10.56-17.16,26.56s3.63,26.73,17.16,26.73,17.16-10.56,17.16-26.73-3.79-26.56-17.16-26.56Z"/>
    <path class="st2" d="M1685.89,1107.35c-13.53,0-17.16,10.56-17.16,26.56s3.63,26.73,17.16,26.73,17.16-10.56,17.16-26.73-3.79-26.56-17.16-26.56Z"/>
    <path class="st2" d="M3.5,749.75v750h1893.43c55.23,0,100-44.77,100-100v-650H3.5ZM1471.78,1059.67h15.67l16.5,23.1h-15.34l-9.08-10.72-9.07,10.72h-15.18l16.5-23.1ZM614.73,1062.14c7.59,0,14.19,5.45,19.8,5.45,5.11,0,10.23-2.48,13.53-5.45l3.79,10.72c-4.95,5.94-10.56,8.75-17.32,8.75s-14.19-5.45-19.8-5.45c-5.28,0-10.39,2.47-13.69,5.45l-3.63-10.72c4.95-5.94,10.4-8.75,17.32-8.75ZM357.25,1079.96h-31.35c-23.1,0-26.89,21.45-26.89,39.1s3.63,39.27,23.59,39.27h13.53v-28.87h-16.83v-14.85h37.95v58.74c-11.22,2.64-26.23,3.46-34.65,3.46-37.12,0-45.37-29.7-45.37-57.75s8.25-57.75,45.37-57.75c8.41,0,23.43.83,34.65,3.46v15.18ZM419.05,1139.85h-27.22c.66,11.88,4.79,20.46,16.99,20.46h28.87v13.04c-11.22,2.64-20.46,3.46-28.87,3.46-27.72,0-37.95-17-37.95-42.9s12.04-42.9,39.93-42.9c22.27,0,32.67,12.87,32.67,25.57,0,11.71-4.95,23.26-24.42,23.26ZM485.72,1176.81c-9.57,0-20.62-.83-31.68-3.46v-13.04h30.69c10.56,0,13.36-5.28,13.36-9.07,0-4.12-2.15-7.26-12.7-9.41-15.51-2.97-31.02-6.6-31.02-26.4,0-17.32,15.01-24.42,34.32-24.42,9.57,0,15.67.83,26.89,3.46v13.03h-26.07c-10.89,0-13.69,4.29-13.69,7.92,0,4.12,2.15,7.75,12.7,9.9,15.51,2.97,31.02,7.26,31.02,25.9s-14.35,25.57-33.82,25.57ZM578.61,1108.01h-20.62v44.88c0,5.45,2.31,7.42,8.25,7.42h12.37v13.04c-6.6,2.31-10.89,3.46-17.32,3.46-17.65,0-23.1-9.74-23.1-22.27v-46.53h-12.37v-12.04l12.37-3.3,9.07-23.1h10.72v23.1h20.62v15.34ZM655.65,1175.16h-18.15l-1.65-9.4h-.33c-6.6,8.74-13.69,11.05-23.59,11.05-15.67,0-24.75-10.72-24.75-25.08,0-19.8,14.02-25.24,27.88-25.24h20.79v-7.26c0-7.59-2.64-11.71-13.53-11.71h-29.7v-13.03c11.05-2.14,22.27-3.46,31.68-3.46,19.96,0,31.35,5.61,31.35,27.39v56.76ZM707.2,1176.81c-27.72,0-37.95-17-37.95-42.9s10.23-42.9,37.95-42.9,37.95,16.99,37.95,42.9-10.23,42.9-37.95,42.9ZM860.64,1175.16h-18.15l-1.65-9.4h-.33c-5.94,7.75-12.04,11.05-21.61,11.05-21.78,0-30.85-17-30.85-42.9s11.05-42.9,36.63-42.9c5.77,0,9.57.33,16.17,1.32v-32.67h19.8v115.5ZM921.83,1139.85h-27.22c.66,11.88,4.79,20.46,16.99,20.46h28.87v13.04c-11.22,2.64-20.46,3.46-28.87,3.46-27.72,0-37.95-17-37.95-42.9s12.04-42.9,39.93-42.9c22.27,0,32.67,12.87,32.67,25.57,0,11.71-4.95,23.26-24.42,23.26ZM1034.52,1133.58h-21.12v41.58h-20.95v-112.2h42.07c22.27,0,35.47,14.02,35.47,35.47s-13.2,35.14-35.47,35.14ZM1143.84,1175.16h-18.15l-1.65-9.4h-.33c-6.6,8.74-13.7,11.05-23.59,11.05-15.67,0-24.75-10.72-24.75-25.08,0-19.8,14.02-25.24,27.88-25.24h20.79v-7.26c0-7.59-2.64-11.71-13.53-11.71h-29.7v-13.03c11.05-2.14,22.27-3.46,31.68-3.46,19.96,0,31.35,5.61,31.35,27.39v56.76ZM1205.66,1108.01h-20.62v44.88c0,5.45,2.31,7.42,8.25,7.42h12.38v13.04c-6.6,2.31-10.89,3.46-17.33,3.46-17.65,0-23.1-9.74-23.1-22.27v-46.53h-12.37v-12.04l12.37-3.3,9.07-23.1h10.72v23.1h20.62v15.34ZM1262.81,1110.48h-4.95c-15.01,0-21.45,7.42-21.45,16.83v47.85h-19.8v-82.5h18.15l1.65,13.7h.33c5.44-11.22,16-15.34,26.07-15.34v19.47ZM1294.01,1175.16h-19.8v-82.5h19.8v82.5ZM1294.01,1081.94h-19.8v-22.27h19.8v22.27ZM1428.1,1175.16h-19.8v-56.92c0-8.08-6.6-11.71-13.7-11.71s-15.51,4.62-16,14.19v54.45h-19.8v-56.92c0-8.08-6.6-11.71-13.7-11.71s-16,4.78-16,15.01v53.62h-19.8v-82.5h18.15l1.65,9.57h.33c6.27-7.92,14.35-11.22,24.42-11.22,11.88,0,19.3,5.28,22.6,13.69h.66c6.76-10.23,16.17-13.69,26.23-13.69,16.83,0,24.75,10.72,24.75,25.57v58.57ZM1478.87,1176.81c-27.72,0-37.95-17-37.95-42.9s10.23-42.9,37.95-42.9,37.95,16.99,37.95,42.9-10.23,42.9-37.95,42.9ZM1599.5,1175.16h-19.8v-56.92c0-8.08-6.6-11.71-13.7-11.71s-16,4.78-16,15.01v53.62h-19.8v-82.5h18.15l1.65,9.57h.33c6.27-7.92,14.35-11.22,24.42-11.22,16.83,0,24.75,10.72,24.75,25.57v58.57ZM1634.75,1175.16h-19.8v-82.5h19.8v82.5ZM1634.75,1081.94h-19.8v-22.27h19.8v22.27ZM1685.89,1176.81c-27.72,0-37.95-17-37.95-42.9s10.23-42.9,37.95-42.9,37.95,16.99,37.95,42.9-10.23,42.9-37.95,42.9Z"/>
    <path class="st2" d="M410.47,1107.51c-11.71,0-17.16,8.25-18.31,19.8h20.62c7.92,0,10.89-4.62,10.89-9.57,0-5.28-4.78-10.23-13.2-10.23Z"/>
  </g>
</svg>