<?xml version="1.0" encoding="UTF-8"?>
<svg xmlns="http://www.w3.org/2000/svg" version="1.1" viewBox="0 0 2200 1466">
  <!-- Generator: Adobe Illustrator 30.6.0, SVG Export Plug-In . SVG Version: 2.1.4 Build 109)  -->
  <defs>
    <style>
      .st0 {
        fill: #fff;
      }
    </style>
  </defs>
  <g id="background">
    <rect class="st0" width="2200" height="1466"/>
  </g>
  <g id="Objects">
    <g>
      <g>
        <circle cx="1611.84" cy="1121.5" r="16.61" transform="translate(-41.1166 2181.4647) rotate(-67.5)"/>
        <circle cx="1676.59" cy="1056.75" r="19.68" transform="translate(-188.1411 1727.9078) rotate(-52.0181)"/>
        <circle cx="1741.34" cy="992" r="22.74" transform="translate(-191.4236 1521.8626) rotate(-45)"/>
        <circle cx="1806.09" cy="927.25" r="25.81" transform="translate(-126.6736 1548.6829) rotate(-45)"/>
        <circle cx="1870.84" cy="862.5" r="28.87" transform="translate(-187.66 781.59) rotate(-22.5)"/>
        <circle cx="1935.59" cy="797.75" r="31.94" transform="translate(-157.95 801.44) rotate(-22.5)"/>
        <circle cx="2000.34" cy="733" r="35"/>
        <circle cx="1935.59" cy="668.25" r="31.94" transform="translate(-99.32 896.72) rotate(-25.45)"/>
        <circle cx="1870.84" cy="603.5" r="28.87" transform="translate(-53.59 1004.5287) rotate(-29.6501)"/>
        <circle cx="1806.09" cy="538.75" r="25.81" transform="translate(14.7485 1124.6751) rotate(-34.7219)"/>
        <circle cx="1741.34" cy="474" r="22.74" transform="translate(87.6204 1196.601) rotate(-38.8304)"/>
        <circle cx="1676.59" cy="409.25" r="19.68" transform="translate(201.6781 1305.3939) rotate(-45)"/>
        <circle cx="1611.84" cy="344.5" r="16.61" transform="translate(471.3946 1534.4965) rotate(-58.2825)"/>
      </g>
      <g>
        <circle cx="1461.34" cy="1121.5" r="16.61" transform="translate(-134.0226 2042.4209) rotate(-67.5)"/>
        <circle cx="1526.09" cy="1056.75" r="19.68" transform="translate(-246.0215 1609.283) rotate(-52.0181)"/>
        <circle cx="1590.84" cy="992" r="22.74" transform="translate(-235.504 1415.443) rotate(-45)"/>
        <circle cx="1655.59" cy="927.25" r="25.81" transform="translate(-170.754 1442.2633) rotate(-45)"/>
        <circle cx="1720.34" cy="862.5" r="28.87" transform="translate(-199.11 724) rotate(-22.5)"/>
        <circle cx="1785.09" cy="797.75" r="31.94" transform="translate(-169.4 743.85) rotate(-22.5)"/>
        <circle cx="1849.84" cy="733" r="35"/>
        <circle cx="1785.09" cy="668.25" r="31.94" transform="translate(-113.93 832.04) rotate(-25.45)"/>
        <circle cx="1720.34" cy="603.5" r="28.87" transform="translate(-73.3 930.08) rotate(-29.65)"/>
        <circle cx="1655.59" cy="538.75" r="25.81" transform="translate(-12.0516 1038.9512) rotate(-34.7219)"/>
        <circle cx="1590.84" cy="474" r="22.74" transform="translate(54.3607 1102.2349) rotate(-38.8304)"/>
        <circle cx="1526.09" cy="409.25" r="19.68" transform="translate(157.5976 1198.9743) rotate(-45)"/>
        <circle cx="1461.34" cy="344.5" r="16.61" transform="translate(400.0173 1406.4736) rotate(-58.2825)"/>
      </g>
      <g>
        <circle cx="1310.84" cy="1121.5" r="16.61" transform="translate(-226.9287 1903.377) rotate(-67.5)"/>
        <circle cx="1375.59" cy="1056.75" r="19.68" transform="translate(-303.9018 1490.6582) rotate(-52.0181)"/>
        <circle cx="1440.34" cy="992" r="22.74" transform="translate(-279.5844 1309.0234) rotate(-45)"/>
        <circle cx="1505.09" cy="927.25" r="25.81" transform="translate(-214.8344 1335.8438) rotate(-45)"/>
        <circle cx="1569.84" cy="862.5" r="28.87" transform="translate(-210.57 666.4) rotate(-22.5)"/>
        <circle cx="1634.59" cy="797.75" r="31.94" transform="translate(-180.86 686.25) rotate(-22.5)"/>
        <circle cx="1699.34" cy="733" r="35"/>
        <circle cx="1634.59" cy="668.25" r="31.94" transform="translate(-128.54 767.36) rotate(-25.45)"/>
        <circle cx="1569.84" cy="603.5" r="28.87" transform="translate(-93 855.62) rotate(-29.65)"/>
        <circle cx="1505.09" cy="538.75" r="25.81" transform="translate(-38.85 953.23) rotate(-34.72)"/>
        <circle cx="1440.34" cy="474" r="22.74" transform="translate(21.101 1007.8688) rotate(-38.8304)"/>
        <circle cx="1375.59" cy="409.25" r="19.68" transform="translate(113.5172 1092.5547) rotate(-45)"/>
        <circle cx="1310.84" cy="344.5" r="16.61" transform="translate(328.6399 1278.4508) rotate(-58.2825)"/>
      </g>
    </g>
    <g>
      <g>
        <circle cx="861.76" cy="1121.5" r="16.61" transform="translate(-363.58 415.15) rotate(-22.5)"/>
        <circle cx="926.51" cy="1056.75" r="19.68" transform="translate(-459.5107 1289.32) rotate(-58.2825)"/>
        <circle cx="991.26" cy="992" r="22.74" transform="translate(-304.5677 1528.1823) rotate(-67.5)"/>
        <circle cx="1056.01" cy="927.25" r="25.81" transform="translate(-204.7752 1548.0322) rotate(-67.5)"/>
        <circle cx="1120.76" cy="862.5" r="28.87" transform="translate(89.8704 1830.6301) rotate(-80.7825)"/>
        <circle cx="1185.51" cy="797.75" r="31.94" transform="translate(208.1626 1840.1658) rotate(-80.7825)"/>
        <circle cx="1250.26" cy="733" r="35"/>
        <circle cx="1185.51" cy="668.25" r="31.94" transform="translate(313.7337 1713.2369) rotate(-79.5728)"/>
        <circle cx="1120.76" cy="603.5" r="28.87" transform="translate(292.6333 1570.2062) rotate(-77.7164)"/>
        <circle cx="1056.01" cy="538.75" r="25.81" transform="translate(264.2638 1421.1026) rotate(-75.1276)"/>
        <circle cx="991.26" cy="474" r="22.74" transform="translate(242.3505 1277.9941) rotate(-72.5878)"/>
        <circle cx="926.51" cy="409.25" r="19.68" transform="translate(193.8519 1108.6198) rotate(-67.5)"/>
        <circle cx="861.76" cy="344.5" r="16.61" transform="translate(8.81 710.26) rotate(-45)"/>
      </g>
      <g>
        <circle cx="711.26" cy="1121.5" r="16.61" transform="translate(-375.04 357.56) rotate(-22.5)"/>
        <circle cx="776.01" cy="1056.75" r="19.68" transform="translate(-530.8882 1161.297) rotate(-58.2825)"/>
        <circle cx="840.76" cy="992" r="22.74" transform="translate(-397.4739 1389.1384) rotate(-67.5)"/>
        <circle cx="905.51" cy="927.25" r="25.81" transform="translate(-297.6814 1408.9884) rotate(-67.5)"/>
        <circle cx="970.26" cy="862.5" r="28.87" transform="translate(-36.5221 1682.0734) rotate(-80.7825)"/>
        <circle cx="1035.01" cy="797.75" r="31.94" transform="translate(81.77 1691.6091) rotate(-80.7825)"/>
        <circle cx="1099.76" cy="733" r="35"/>
        <circle cx="1035.01" cy="668.25" r="31.94" transform="translate(190.4722 1565.2223) rotate(-79.5728)"/>
        <circle cx="970.26" cy="603.5" r="28.87" transform="translate(174.1522 1423.1517) rotate(-77.7164)"/>
        <circle cx="905.51" cy="538.75" r="25.81" transform="translate(152.3923 1275.6444) rotate(-75.1276)"/>
        <circle cx="840.76" cy="474" r="22.74" transform="translate(136.8868 1134.3906) rotate(-72.5878)"/>
        <circle cx="776.01" cy="409.25" r="19.68" transform="translate(100.95 969.58) rotate(-67.5)"/>
        <circle cx="711.26" cy="344.5" r="16.61" transform="translate(-35.28 603.84) rotate(-45)"/>
      </g>
    </g>
    <g>
      <circle cx="199.66" cy="1121.5" r="16.61" transform="translate(-22.38 4.21) rotate(-1.15)"/>
      <circle cx="264.41" cy="1056.75" r="19.68"/>
      <circle cx="329.16" cy="992" r="22.74"/>
      <circle cx="393.91" cy="927.25" r="25.81" transform="translate(-584.4632 1167.5458) rotate(-80.7825)"/>
      <circle cx="458.66" cy="862.5" r="28.87"/>
      <circle cx="523.41" cy="797.75" r="31.94"/>
      <circle cx="588.16" cy="733" r="35"/>
      <circle cx="523.41" cy="668.25" r="31.94"/>
      <circle cx="458.66" cy="603.5" r="28.87"/>
      <circle cx="393.91" cy="538.75" r="25.81"/>
      <circle cx="329.16" cy="474" r="22.74"/>
      <circle cx="264.41" cy="409.25" r="19.68"/>
      <circle cx="199.66" cy="344.5" r="16.61" transform="translate(-18.75 11.57) rotate(-3.17)"/>
    </g>
  </g>
</svg>