<?xml version="1.0" encoding="UTF-8"?>
<svg xmlns="http://www.w3.org/2000/svg" xmlns:xlink="http://www.w3.org/1999/xlink" version="1.1" viewBox="0 0 3580.96 1603.57">
  <!-- Generator: Adobe Illustrator 30.6.0, SVG Export Plug-In . SVG Version: 2.1.4 Build 109)  -->
  <defs>
    <style>
      .st0 {
        isolation: isolate;
      }

      .st1 {
        mix-blend-mode: multiply;
      }

      .st2 {
        fill: #fafafa;
      }

      .st3 {
        clip-path: url(#clippath);
      }
    </style>
    <clipPath id="clippath">
      <rect class="st2" x="410.52" width="2806.24" height="1603.57"/>
    </clipPath>
  </defs>
  <g class="st0">
    <g id="Layer_1">
      <g>
        <rect class="st2" x="410.52" width="2806.24" height="1603.57"/>
        <g class="st3">
          <g class="st1">
            <path d="M3216.08,1142.49c-99.45,0-203.51-41.8-309.52-124.36-51.89-40.42-100.1-86.74-146.72-131.54-36.08-34.67-73.39-70.51-112.14-103.36-108.06-91.61-208.79-140.55-307.95-149.62-133.41-12.23-258.87,48.2-380.15,106.63-103.74,49.98-211.02,101.66-325.13,110.01-174.19,12.8-336.49-75.33-472.29-163.18-22.05-14.27-44.42-29.1-66.05-43.45-118.06-78.32-240.14-159.3-378.36-193.09-157.77-38.58-360.18,1.61-441.79,153.03l-4.9-2.64c82.95-153.91,288.15-194.88,448.02-155.8,139.16,34.02,261.65,115.28,380.11,193.86,21.62,14.34,43.97,29.17,65.99,43.41,135.02,87.35,296.24,174.93,468.86,162.31,113.05-8.28,219.84-59.72,323.11-109.47,121.96-58.76,248.05-119.49,383.08-107.16,100.33,9.18,202.08,58.54,311.04,150.92,38.88,32.96,76.25,68.87,112.39,103.59,46.52,44.7,94.62,90.91,146.29,131.16,109.11,84.99,216.04,126.34,317.61,123,106.16-3.53,231.52-72.67,254.73-193.88l5.47,1.05c-23.76,124.04-151.7,194.8-260.02,198.39-3.89.13-7.8.2-11.7.2Z"/>
          </g>
          <g class="st1">
            <path d="M961.1,926.54c-30.47,0-61.14-2.27-91.86-7.25-85.43-13.86-166.85-47.98-245.59-80.98-14.27-5.98-28.53-11.95-42.8-17.81-92.72-38.04-192.42-72.65-293.46-68.4-111.28,4.69-208.43,61.77-247.52,145.42l-5.05-2.36c39.96-85.51,139.01-143.85,252.33-148.62,102.05-4.29,202.5,30.53,295.81,68.82,14.29,5.86,28.56,11.84,42.84,17.83,78.45,32.87,159.56,66.86,244.34,80.62,216.93,35.2,433.01-66.3,576.65-145.72,43.03-23.79,86.34-49.22,128.22-73.82,130.97-76.91,266.39-156.44,414.46-198.24,234.2-66.12,498.64-30.89,707.35,94.22,53.21,31.9,103.65,69.72,152.43,106.3,35.35,26.5,71.89,53.91,109.18,78.83,107.85,72.06,204.25,108.04,294.7,110.01,114.35,2.52,221.09-58.25,259.88-147.7l5.11,2.21c-39.66,91.48-148.8,153.47-265.11,151.06-91.55-2-188.92-38.29-297.67-110.95-37.42-25-74.03-52.45-109.43-79.01-48.67-36.49-98.99-74.23-151.95-105.98-207.43-124.34-470.22-159.35-702.98-93.64-147.38,41.61-282.49,120.96-413.15,197.69-41.91,24.61-85.25,50.07-128.34,73.89-124.09,68.6-302.01,153.59-488.38,153.59Z"/>
          </g>
          <g class="st1">
            <path d="M1457.64,1315.64c-56.64,0-110.6-10.46-159.87-31.83-132.56-57.48-218.85-184.84-285.76-301.85-10.15-17.74-20.16-35.65-30.18-53.6-58.12-104.03-118.21-211.61-209.22-289.12-151.04-128.64-379.28-154.22-555.04-62.19l-2.58-4.93c177.73-93.06,408.52-67.2,561.24,62.88,91.77,78.16,152.11,186.18,210.47,290.65,10.02,17.94,20.02,35.84,30.15,53.56,66.47,116.21,152.08,242.67,283.15,299.51,153.97,66.76,355.03,25.57,537.8-110.2,81.1-60.25,154.33-132.65,225.15-202.68,64.16-63.44,130.5-129.05,202.66-185.6,86.6-67.88,312.5-217.33,539.18-139.3,78.89,27.15,146.77,79.08,212.41,129.3l8.44,6.45c71.23,54.43,141.9,105.09,223.2,126.9,92.06,24.7,185.24,3.15,237.37-54.93l4.14,3.72c-53.51,59.62-148.86,81.84-242.96,56.59-82.27-22.08-153.44-73.08-225.13-127.85l-8.44-6.46c-65.29-49.95-132.8-101.6-210.84-128.46-224.06-77.13-448.04,71.11-533.93,138.42-71.91,56.35-138.13,121.84-202.18,185.17-70.95,70.16-144.32,142.71-225.75,203.19-126.09,93.66-260.97,142.65-383.46,142.66Z"/>
          </g>
          <g class="st1">
            <path d="M1861.03,1220.52c-252.35.01-469.33-184.84-612.23-326.03-25.11-24.81-50.54-50.56-75.12-75.47-147.37-149.28-299.76-303.64-497.03-372.71-227.69-79.72-491.86-28.24-672.97,131.16l-3.68-4.18c88.97-78.31,200.22-132.22,321.74-155.9,121.51-23.69,244.88-15.5,356.74,23.66,198.48,69.49,351.33,224.32,499.15,374.05,24.58,24.9,49.99,50.64,75.07,75.42,146.83,145.07,372.21,336.49,632.95,323.83,133.22-6.46,269.23-64.52,428.05-182.72,42.9-31.93,85.28-66.2,126.26-99.35,80.08-64.77,162.9-131.75,253.44-184.32,92.46-53.68,274.63-135.58,455.86-80.89,108.07,32.61,198.73,109.38,278.71,177.12l152.98,129.57-3.6,4.25-152.98-129.57c-79.57-67.39-169.76-143.77-276.72-176.04-179.22-54.07-359.77,27.15-451.46,80.38-90.18,52.35-172.82,119.19-252.74,183.83-41.03,33.18-83.44,67.5-126.43,99.49-159.75,118.89-296.73,177.3-431.1,183.82-8.33.4-16.64.6-24.9.6Z"/>
          </g>
        </g>
      </g>
    </g>
  </g>
</svg>